Coordinates
version=1
nRows=14
nColumns=36
inDegrees=yes

Units are S.I. units (second, meters, Newtons, ...)
If the header above contains a line with 'inDegrees', this indicates whether rotational values are in degrees (yes) or radians (no).

endheader
time	pelvis_tilt	pelvis_list	pelvis_rotation	pelvis_tx	pelvis_ty	pelvis_tz	hip_flexion_r	hip_adduction_r	hip_rotation_r	knee_angle_r	knee_angle_r_beta	ankle_angle_r	subtalar_angle_r	mtp_angle_r	hip_flexion_l	hip_adduction_l	hip_rotation_l	knee_angle_l	knee_angle_l_beta	ankle_angle_l	subtalar_angle_l	mtp_angle_l	lumbar_extension	lumbar_bending	lumbar_rotation	arm_flex_r	arm_add_r	arm_rot_r	elbow_flex_r	pro_sup_r	arm_flex_l	arm_add_l	arm_rot_l	elbow_flex_l	pro_sup_l
      0.38000000	      0.37104129	     -0.61999348	      1.76393361	      0.43086989	      1.16148162	     -0.19945127	     -0.99638078	      4.92947320	     -4.99168963	      7.46722182	      0.13032761	      8.47446053	     -2.41779263	     -5.93661199	     25.99764875	     -2.57811703	     -4.52137563	     34.23524159	      0.59751769	     -7.70992717	    -15.64899493	     -5.93661199	    -11.46391663	      4.83483237	      1.54527811	    -10.45588063	     -9.77179327	    -13.73305561	     54.68491592	    111.28837398	    -11.33851638	     -2.61346053	    -10.18322839	     52.46224787	    108.21952241
      0.39000000	      0.41794328	     -0.77133878	      1.75132223	      0.44052932	      1.16065721	     -0.19928110	     -1.86204706	      5.14642704	     -4.92684164	      6.95505839	      0.12138867	      8.82277403	     -2.16957269	     -5.95388593	     25.83115505	     -2.60940960	     -4.79213181	     31.36827784	      0.54747973	     -7.51023068	    -14.95338165	     -5.95388593	    -11.56261459	      4.93711864	      1.55778869	    -10.31704666	     -9.86716942	    -13.74626652	     55.09395875	    111.26880160	    -11.29972697	     -2.56373179	    -10.16533137	     52.28307382	    108.27543005
      0.40000000	      0.55936803	     -0.92743179	      1.69703668	      0.45028698	      1.15981326	     -0.19909475	     -2.81984889	      5.36149748	     -4.90019175	      6.46013290	      0.11275059	      9.23787526	     -1.84371868	     -5.97945076	     25.53023662	     -2.66978699	     -5.19256248	     28.57424359	      0.49871463	     -7.11857010	    -13.97782039	     -5.97945076	    -11.78728825	      5.04122539	      1.62695703	    -10.19704531	     -9.95038090	    -13.82098328	     55.50612393	    111.21843163	    -11.23597085	     -2.55878667	    -10.12699391	     52.09885347	    108.37583633
      0.41000000	      0.34717325	     -1.20084049	      1.65827775	      0.45986347	      1.15830265	     -0.19898129	     -3.30802781	      5.68707587	     -4.78175312	      6.12938225	      0.10697790	      9.49521792	     -1.64207933	     -5.98991800	     25.65255527	     -2.76368243	     -5.29309057	     25.93295420	      0.45261544	     -6.87927353	    -13.13122033	     -5.98991800	    -11.59382333	      5.26359900	      1.64009053	    -10.09313604	    -10.04873116	    -13.84535815	     55.88216151	    111.21149096	    -11.27231513	     -2.50378862	    -10.12337119	     52.02520271	    108.41355885
      0.42000000	      0.64499201	     -1.28497150	      1.56424323	      0.46982519	      1.15743299	     -0.19881544	     -4.44176757	      5.81427307	     -4.70700142	      5.66179631	      0.09881699	     10.01083746	     -1.21731823	     -6.02328846	     25.09769491	     -2.75792341	     -5.82674432	     23.27566429	      0.40623698	     -6.13660631	    -11.45189339	     -6.02328846	    -11.99315663	      5.26768624	      1.77283095	    -10.02291394	    -10.07244767	    -13.94037645	     56.29252610	    111.15388390	    -11.14739033	     -2.50504902	    -10.08152925	     51.79187463	    108.50683391
      0.43000000	      0.38395214	     -1.58566495	      1.52343845	      0.47955615	      1.15558708	     -0.19876512	     -4.84084591	      6.15995955	     -4.63548116	      5.41285874	      0.09447221	     10.28019314	     -1.10331798	     -6.03147926	     25.26985940	     -2.85227775	     -5.88826654	     20.91512131	      0.36503773	     -5.89091989	    -10.59348808	     -6.03147926	    -11.73847534	      5.52303192	      1.77701388	     -9.96177892	    -10.16090368	    -13.95120885	     56.59642429	    111.16038211	    -11.22607457	     -2.47123572	    -10.09980949	     51.71934691	    108.51767078
      0.44000000	      0.70414674	     -1.60808279	      1.44642105	      0.48966048	      1.15452699	     -0.19866718	     -5.98467095	      6.21606296	     -4.52570773	      4.99516279	      0.08718204	     10.80847296	     -0.65780781	     -6.07345511	     24.64408688	     -2.74722619	     -6.32639277	     18.49649864	      0.32282480	     -4.95003434	     -8.39761178	     -6.07345511	    -12.15753832	      5.42690753	      1.90220962	     -9.92385220	    -10.16567778	    -14.01109241	     56.96684591	    111.15398669	    -11.05935370	     -2.49314908	    -10.08294298	     51.50552249	    108.55091562
      0.45000000	      0.73171237	     -1.74575005	      1.41165197	      0.49964485	      1.15296733	     -0.19868073	     -6.71975928	      6.38700992	     -4.43570643	      4.74461046	      0.08280907	     11.23578648	     -0.48690065	     -6.10380386	     24.39215815	     -2.67873499	     -6.44888288	     16.29569928	      0.28441361	     -4.38554687	     -6.89449329	     -6.10380386	    -12.23039146	      5.48129021	      1.89885789	     -9.84241296	    -10.19117932	    -14.00549517	     57.22480349	    111.17698336	    -10.99882548	     -2.48603522	    -10.10800268	     51.27249350	    108.53836307
      0.46000000	      0.52080455	     -1.94044618	      1.37996866	      0.50955299	      1.15101947	     -0.19875395	     -7.13049025	      6.60954028	     -4.29102787	      4.61292219	      0.08051068	     11.51253634	     -0.41719391	     -6.11331128	     24.40879566	     -2.61737737	     -6.25444670	     14.26120383	      0.24890496	     -4.07628018	     -5.83434133	     -6.11331128	    -12.03647760	      5.58740486	      1.87871349	     -9.79328564	    -10.22723286	    -13.97778031	     57.43070176	    111.19843355	    -11.02200124	     -2.45712806	    -10.13418336	     51.15004562	    108.52354780
      0.47000000	      0.51107585	     -2.02434451	      1.36559303	      0.51966586	      1.14933793	     -0.19888198	     -7.78118219	      6.71547415	     -4.17676109	      4.46117565	      0.07786220	     11.90099507	     -0.37320487	     -6.12480404	     24.12397435	     -2.45297506	     -6.07582977	     12.27900135	      0.21430900	     -3.58694103	     -4.46198891	     -6.12480404	    -12.05708149	      5.56897233	      1.84630149	     -9.71419777	    -10.23220204	    -13.93202348	     57.57980953	    111.22074655	    -10.96246137	     -2.45519409	    -10.16979224	     50.89442725	    108.49208104
      0.48000000	      0.70567735	     -2.07260258	      1.35664781	      0.52998144	      1.14791282	     -0.19899905	     -8.66194226	      6.78638114	     -4.18424988	      4.28942454	      0.07486458	     12.32016371	     -0.24259010	     -6.14523847	     23.63635541	     -2.30573922	     -6.21097120	     10.54649641	      0.18407109	     -2.78343530	     -2.74667387	     -6.14523847	    -12.31244809	      5.50316853	      1.80865726	     -9.62184183	    -10.20909442	    -13.90243120	     57.68057030	    111.24418680	    -10.87652218	     -2.47907562	    -10.16097114	     50.61817637	    108.45990985
      0.49000000	      0.83818342	     -2.14693870	      1.32827256	      0.54035320	      1.14637676	     -0.19908611	     -9.40025587	      6.86674110	     -4.26783553	      4.27238381	      0.07456716	     12.72353180	      0.12122907	     -6.19379511	     23.30698306	     -2.24025429	     -6.74219226	      9.18928785	      0.16038333	     -1.69863607	     -0.55874435	     -6.19379511	    -12.49162178	      5.44213328	      1.81338754	     -9.58814768	    -10.17460458	    -13.91317450	     57.78693285	    111.27404191	    -10.84072868	     -2.52454924	    -10.11162583	     50.44802694	    108.43900305
      0.50000000	      0.67801286	     -2.24028077	      1.31385928	      0.55059694	      1.14448745	     -0.19935911	     -9.71692501	      6.95438726	     -4.22110154	      4.45661370	      0.07778258	     13.04206651	      0.03075707	     -6.20351417	     23.24513724	     -2.08543923	     -6.45713854	      7.90554821	      0.13797785	     -1.34453121	      0.29660359	     -6.20351417	    -12.33223268	      5.43747286	      1.71889430	     -9.52234257	    -10.14036288	    -13.89826690	     57.82392079	    111.27965282	    -10.85509579	     -2.51451049	    -10.14754999	     50.16959958	    108.41032648
      0.51000000	      0.81123579	     -2.25592290	      1.33062221	      0.56112446	      1.14297728	     -0.19966397	    -10.38384435	      6.96309540	     -4.32847508	      4.59470506	      0.08019273	     13.47198189	      0.16431831	     -6.23121876	     22.89003291	     -1.89988967	     -6.62731884	      6.91043979	      0.12060993	     -0.68626734	      1.61874510	     -6.23121876	    -12.48798942	      5.33641888	      1.64095480	     -9.47394470	    -10.08540659	    -13.85873085	     57.78804914	    111.28509808	    -10.78107606	     -2.52574438	    -10.17037568	     49.80472913	    108.38172970
